<?xml version="1.0" standalone="no"?>
<!DOCTYPE svg PUBLIC "-//W3C//DTD SVG 20010904//EN"
 "http://www.w3.org/TR/2001/REC-SVG-20010904/DTD/svg10.dtd">
<svg version="1.0" xmlns="http://www.w3.org/2000/svg"
 width="700.000000pt" height="700.000000pt" viewBox="0 0 700.000000 700.000000"
 preserveAspectRatio="xMidYMid meet">
<metadata>
Created by potrace 1.14, written by Peter Selinger 2001-2017
</metadata>
<g transform="translate(0.000000,700.000000) scale(0.100000,-0.100000)"
fill="#000000" stroke="none">
<path d="M4310 5755 l0 -815 100 0 100 0 0 318 0 318 193 1 c159 0 195 -2 210
-15 9 -8 17 -18 17 -23 0 -6 161 -308 286 -534 l33 -60 116 -3 116 -3 -24 43
c-24 42 -115 208 -185 338 -19 36 -50 91 -68 123 -19 32 -34 60 -34 62 0 2
-13 27 -30 54 l-29 51 54 25 c186 89 273 278 243 530 -20 166 -125 301 -278
359 -108 40 -156 45 -492 46 l-328 1 0 -816z m680 625 c102 -24 164 -72 203
-158 32 -70 34 -217 4 -290 -27 -66 -67 -108 -132 -138 -72 -32 -105 -36 -342
-38 l-213 -2 0 321 0 321 213 -1 c136 -1 232 -6 267 -15z"/>
<path d="M5730 6162 c-14 -5 -12 -838 1 -912 15 -78 59 -168 107 -217 174
-178 509 -131 629 88 l18 34 3 -107 3 -108 94 0 95 0 -2 612 -3 611 -93 1 -92
1 -1 -390 c0 -214 -3 -401 -5 -415 -16 -86 -89 -181 -168 -220 -168 -81 -342
-12 -391 153 -12 41 -15 126 -15 459 0 224 -3 408 -7 409 -24 3 -165 3 -173 1z"/>
<path d="M357 4533 c-2 -5 -3 -881 -3 -1948 l1 -1940 283 -2 282 -2 0 1414 c0
1323 1 1413 17 1411 22 -4 19 4 129 -266 53 -129 102 -248 109 -265 7 -16 77
-185 155 -375 78 -190 148 -358 155 -375 8 -16 39 -93 70 -170 31 -77 62 -153
69 -170 8 -16 44 -104 81 -195 37 -91 73 -179 80 -195 14 -30 37 -85 40 -95 1
-3 7 -18 13 -33 7 -16 21 -52 33 -80 12 -29 25 -61 30 -72 15 -35 97 -235 156
-380 31 -77 57 -141 59 -143 4 -6 464 -5 470 1 5 5 80 184 415 994 43 106 115
280 158 385 272 657 322 779 341 828 13 30 28 69 35 85 49 112 205 497 205
504 0 5 10 11 23 13 l22 4 0 -1412 0 -1413 283 0 282 0 0 1950 0 1949 -360 0
-359 0 -15 -32 c-7 -18 -62 -150 -121 -293 -59 -143 -115 -278 -125 -300 -9
-22 -23 -56 -30 -75 -7 -19 -21 -53 -31 -75 -9 -22 -38 -92 -64 -155 -25 -63
-52 -128 -60 -145 -16 -36 -429 -1034 -492 -1190 -25 -60 -52 -126 -60 -145
-8 -19 -19 -44 -24 -55 -4 -11 -47 -114 -95 -230 -47 -115 -92 -223 -99 -240
-7 -16 -19 -45 -26 -63 -11 -26 -19 -32 -38 -30 -25 3 -10 -31 -298 668 -57
140 -111 269 -118 285 -7 17 -40 95 -73 175 -32 80 -118 287 -190 460 -71 173
-196 475 -277 670 -80 195 -161 391 -180 435 -59 142 -116 279 -127 308 l-10
27 -358 0 c-198 0 -361 -3 -363 -7z"/>
</g>
</svg>
